<svg xmlns="http://www.w3.org/2000/svg" version="1.1" xmlns:xlink="http://www.w3.org/1999/xlink" xmlns:svgjs="http://svgjs.dev/svgjs" width="2000" height="1247" viewBox="0 0 2000 1247"><g transform="matrix(1,0,0,1,-1.2121212121212466,0.504858299595071)"><svg viewBox="0 0 396 247" data-background-color="#c8c8c8" preserveAspectRatio="xMidYMid meet" height="1247" width="2000" xmlns="http://www.w3.org/2000/svg" xmlns:xlink="http://www.w3.org/1999/xlink"><g id="tight-bounds" transform="matrix(1,0,0,1,0.2400000000000091,-0.09999999999999432)"><svg viewBox="0 0 395.52 247.2" height="247.2" width="395.52"><g><svg></svg></g><g><svg viewBox="0 0 395.52 247.2" height="247.2" width="395.52"><g transform="matrix(1,0,0,1,75.54432,87.54188117647058)"><svg viewBox="0 0 244.43135999999998 72.11623764705881" height="72.11623764705881" width="244.43135999999998"><g><svg viewBox="0 0 244.43135999999998 72.11623764705881" height="72.11623764705881" width="244.43135999999998"><g><svg viewBox="0 0 244.43135999999998 72.11623764705881" height="72.11623764705881" width="244.43135999999998"><g><svg viewBox="0 0 244.43135999999998 72.11623764705881" height="72.11623764705881" width="244.43135999999998"><g id="textblocktransform"><svg viewBox="0 0 244.43135999999998 72.11623764705881" height="72.11623764705881" width="244.43135999999998" id="textblock"><g><svg viewBox="0 0 244.43135999999998 72.11623764705881" height="72.11623764705881" width="244.43135999999998"><g transform="matrix(1,0,0,1,0,0)"><svg width="244.43135999999998" viewBox="1.75 -31.5 108.79 32.1" height="72.11623764705881" data-palette-color="#000000"><path d="M26.9 0L25.3 0 6.5-27.9 6.5-1.6Q6.5-0.9 7.2-0.9L7.2-0.9 9.55-0.9 9.55 0 1.75 0 1.75-0.9 4.1-0.9Q4.8-0.9 4.8-1.6L4.8-1.6 4.8-30Q4.8-30.6 4.1-30.6L4.1-30.6 1.75-30.6 1.75-31.5 9.1-31.5 25.2-7.7 25.2-29.9Q25.2-30.6 24.5-30.6L24.5-30.6 22.15-30.6 22.15-31.5 29.95-31.5 29.95-30.6 27.6-30.6Q26.9-30.6 26.9-30L26.9-30 26.9 0ZM36.25-2.45Q33.45-5.5 33.45-10.8 33.45-16.1 36.25-19.15 39.05-22.2 43.55-22.2 48.05-22.2 50.87-19.15 53.7-16.1 53.7-10.8 53.7-5.5 50.87-2.45 48.05 0.6 43.55 0.6 39.05 0.6 36.25-2.45ZM39.05-18.32Q37.25-15.55 37.25-10.8 37.25-6.05 39.05-3.28 40.85-0.5 43.55-0.5 46.25-0.5 48.07-3.28 49.9-6.05 49.9-10.8 49.9-15.55 48.07-18.32 46.25-21.1 43.55-21.1 40.85-21.1 39.05-18.32ZM62.6-26.9L62.6-26.9 63.35-26.9 63.35-21.6 68.35-21.6 68.35-20.7 63.35-20.7 63.35-3.75Q63.35-1.05 64.85-1.05L64.85-1.05Q65.55-1.05 66.07-1.7 66.6-2.35 66.6-3.2 66.6-4.05 66.45-4.8L66.45-4.8 67.4-4.95Q67.6-4.2 67.6-3.3L67.6-3.3Q67.6-1.5 66.52-0.45 65.45 0.6 63.7 0.6 61.95 0.6 60.85-0.83 59.75-2.25 59.75-5.1L59.75-5.1 59.75-20Q59.75-20.7 59.05-20.7L59.05-20.7 56.7-20.7 56.7-21.6 59.15-21.6Q60.75-21.6 62.6-26.9ZM81.44-22.2L81.44-22.2Q84.89-22.2 86.89-19.9 88.89-17.6 88.89-13.15L88.89-13.15Q88.89-12.25 88.79-11.15L88.79-11.15 75.14-11.15 75.14-10.8Q75.14-6.05 76.87-3.33 78.59-0.6 81.32-0.6 84.04-0.6 85.79-2 87.54-3.4 88.19-6L88.19-6 89.14-5.8Q88.54-2.75 86.39-1.07 84.24 0.6 81.44 0.6L81.44 0.6Q77.09 0.6 74.22-2.45 71.34-5.5 71.34-10.78 71.34-16.05 74.24-19.13 77.14-22.2 81.44-22.2ZM85.44-14.85L85.44-14.85Q85.44-21 80.84-21L80.84-21Q78.54-21 76.92-18.5 75.29-16 75.19-12.15L75.19-12.15 85.24-12.15Q85.44-13.85 85.44-14.85ZM106.14-22.2Q108.09-22.2 109.32-20.55 110.54-18.9 110.54-16.4 110.54-13.9 108.49-13.9L108.49-13.9Q107.29-13.9 106.54-14.65L106.54-14.65Q107.19-16.1 107.19-17.6L107.19-17.6Q107.19-20.25 104.99-20.25L104.99-20.25Q103.14-20.25 101.72-17.18 100.29-14.1 100.29-8.25L100.29-8.25 100.29-1.6Q100.29-0.9 100.99-0.9L100.99-0.9 104.34-0.9 104.34 0 93.64 0 93.64-0.9 95.99-0.9Q96.69-0.9 96.69-1.6L96.69-1.6 96.69-20Q96.69-20.7 95.99-20.7L95.99-20.7 93.64-20.7 93.64-21.6 96.09-21.6Q99.09-21.6 100.29-21.9L100.29-21.9 100.29-15.5Q101.09-18.95 102.64-20.58 104.19-22.2 106.14-22.2Z" opacity="1" transform="matrix(1,0,0,1,0,0)" fill="#000000" class="wordmark-text-0" data-fill-palette-color="primary" id="text-0"></path></svg></g></svg></g></svg></g></svg></g></svg></g></svg></g></svg></g><path d="M207.281 81.542L207.281 25.005 10.09 25.005 10.09 222.195 207.281 222.195 207.281 165.658 200.777 165.658 200.777 215.692 16.594 215.692 16.594 31.508 200.777 31.508 200.777 81.542Z" fill="#000000" stroke="transparent" data-fill-palette-color="tertiary"></path></svg></g><defs></defs></svg><rect width="395.52" height="247.2" fill="none" stroke="none" visibility="hidden"></rect></g></svg></g></svg>