<?xml version="1.0" encoding="utf-8"?>
<!-- Generator: Adobe Illustrator 27.5.0, SVG Export Plug-In . SVG Version: 6.00 Build 0)  -->
<svg version="1.1" xmlns="http://www.w3.org/2000/svg" xmlns:xlink="http://www.w3.org/1999/xlink" x="0px" y="0px"
	 viewBox="0 0 750 500" style="enable-background:new 0 0 750 500;" xml:space="preserve">
<g id="BACKGROUND">
</g>
<g id="OBJECTS">
	<g>
		<path style="fill:#7f8286;" d="M101.498,195.078c18.92-10.619,39.529-19.025,58.13-28.813
			c31.925-16.799,63.389-34.6,93.726-54.134c40.578-26.129,81.385-46.506,129.42-54.743c53.46-9.167,109.558-4.831,160.673,13.499
			c0.467,0.166,0.933,0.334,1.398,0.505c40.543,14.773,77.769,39.829,103.996,74.387c30.511,40.202,44.461,89.449,42.7,139.578
			c-0.45,12.805-1.569,25.582-3.037,38.308C673.053,457.585,498.784,470.462,426.672,466.17
			c-72.11-4.292-216.459-49.438-254.964-44.64c-41.705,5.196-87.678-9.521-115.193-42.113
			c-32.851-38.912-29.471-98.614-4.085-140.519C64.291,219.318,81.997,206.023,101.498,195.078z"/>
		<g>
			
				<rect x="530.802" y="71.153" style="fill:none;stroke:#000;stroke-linecap:round;stroke-linejoin:round;stroke-miterlimit:10;" width="108.747" height="132.619"/>
			
				<rect x="537.906" y="79.817" style="fill:none;stroke:#000;stroke-linecap:round;stroke-linejoin:round;stroke-miterlimit:10;" width="94.539" height="115.292"/>
			
				<rect x="568.416" y="117.024" style="fill:none;stroke:#000;stroke-linecap:round;stroke-linejoin:round;stroke-miterlimit:10;" width="33.52" height="40.878"/>
		</g>
		<g>
			
				<line style="fill:none;stroke:#000;stroke-linecap:round;stroke-linejoin:round;stroke-miterlimit:10;" x1="274.228" y1="224.644" x2="274.228" y2="55.413"/>
			<polyline style="fill:none;stroke:#000;stroke-linecap:round;stroke-linejoin:round;stroke-miterlimit:10;" points="
				52.061,318.034 274.228,318.034 274.228,232.224 			"/>
			
				<line style="fill:none;stroke:#000;stroke-linecap:round;stroke-linejoin:round;stroke-miterlimit:10;" x1="505.796" y1="179.609" x2="505.796" y2="56.219"/>
			<polyline style="fill:none;stroke:#000;stroke-linecap:round;stroke-linejoin:round;stroke-miterlimit:10;" points="
				283.628,62.786 283.628,318.034 505.796,318.034 505.796,185.406 			"/>
			
				<line style="fill:none;stroke:#000;stroke-linecap:round;stroke-linejoin:round;stroke-miterlimit:10;" x1="283.628" y1="55.413" x2="283.628" y2="58.327"/>
		</g>
		<g>
			
				<rect x="130.35" y="425.416" style="fill:#FFFFFF;stroke:#000;stroke-linecap:round;stroke-linejoin:round;stroke-miterlimit:10;" width="16.2" height="18.29"/>
			
				<rect x="78.676" y="346.655" style="fill:#FFFFFF;stroke:#000;stroke-linecap:round;stroke-linejoin:round;stroke-miterlimit:10;" width="119.549" height="80.626"/>
			
				<rect x="82.299" y="350.134" style="fill:#89929c;stroke:#000;stroke-linecap:round;stroke-linejoin:round;stroke-miterlimit:10;" width="112.303" height="73.666"/>
		</g>
		<path style="fill:#;stroke:#000;stroke-linecap:round;stroke-linejoin:round;stroke-miterlimit:10;" d="M362.178,340.04
			h-69.277c-6.523,0-12.153,4.573-13.49,10.957l-19.389,92.569h97.442l18.206-86.918C377.463,348.085,370.927,340.04,362.178,340.04
			z"/>
		<g>
			<path style="fill:#89929c;stroke:#000;stroke-linecap:round;stroke-linejoin:round;stroke-miterlimit:10;" d="
				M573.514,244.988c0,0-4.461,12.268-13.94,13.94c-9.479,1.673-26.208-16.728-15.613-26.208
				C554.555,223.241,569.053,238.296,573.514,244.988z"/>
			<path style="fill:#89929c;stroke:#000;stroke-linecap:round;stroke-linejoin:round;stroke-miterlimit:10;" d="
				M588.012,184.765c0,0-13.941,34.015-8.364,50.743c5.576,16.728,40.149,28.996,50.186,7.249
				c10.037-21.747-12.268-52.416-20.632-59.108C600.837,176.958,590.8,179.189,588.012,184.765z"/>
			<path style="fill:#89929c;stroke:#000;stroke-linecap:round;stroke-linejoin:round;stroke-miterlimit:10;" d="
				M669.424,199.263c0,0-23.978,21.747-26.766,43.494c-2.788,21.747,13.383,29.554,30.111,26.766
				c16.729-2.788,25.093-45.167,20.074-64.684C687.826,185.323,669.424,199.263,669.424,199.263z"/>
			<g>
				<path style="fill:#89929c;stroke:#000;stroke-linecap:round;stroke-linejoin:round;stroke-miterlimit:10;" d="
					M673.885,319.709c0,0-26.766,1.116-27.881,13.941c-1.115,12.825,11.71,15.613,24.535,4.461
					C683.365,326.958,685.037,320.266,673.885,319.709z"/>
				<path style="fill:none;stroke:#000;stroke-linecap:round;stroke-linejoin:round;stroke-miterlimit:10;" d="M646.447,336.706
					c0,0,21.094-9.651,30.594-11.327"/>
			</g>
			<g>
				<path style="fill:#89929c;stroke:#000;stroke-linecap:round;stroke-linejoin:round;stroke-miterlimit:10;" d="
					M679.852,403.629c0,0-19.661-18.196-29.543-9.946c-9.882,8.251-2.818,19.312,14.133,20.546
					C681.393,415.462,687.319,411.931,679.852,403.629z"/>
				<path style="fill:none;stroke:#000;stroke-linecap:round;stroke-linejoin:round;stroke-miterlimit:10;" d="M648.454,396.152
					c0,0,21.716,8.157,29.601,13.712"/>
			</g>
			<g>
				<path style="fill:#89929c;stroke:#000;stroke-linecap:round;stroke-linejoin:round;stroke-miterlimit:10;" d="
					M576.144,398.27c0,0,27.102-25.083,40.724-13.71c13.623,11.374,3.884,26.621-19.482,28.322
					C574.019,414.582,565.851,409.715,576.144,398.27z"/>
				<path style="fill:none;stroke:#000;stroke-linecap:round;stroke-linejoin:round;stroke-miterlimit:10;" d="M619.426,387.963
					c0,0-29.935,11.244-40.805,18.902"/>
			</g>
			<path style="fill:#89929c;stroke:#000;stroke-linecap:round;stroke-linejoin:round;stroke-miterlimit:10;" d="
				M607.528,346.474c0,0-2.788,13.383-12.825,18.401c-10.037,5.019-27.881-5.576-18.402-21.747
				C585.781,326.958,602.51,339.783,607.528,346.474z"/>
			<path style="fill:#89929c;stroke:#000;stroke-linecap:round;stroke-linejoin:round;stroke-miterlimit:10;" d="
				M584.109,304.653c0,0-5.019-11.152-24.535-3.903c-19.517,7.249-27.323,18.401-15.056,22.305
				C556.785,326.958,584.109,304.653,584.109,304.653z"/>
			<path style="fill:none;stroke:#000;stroke-linecap:round;stroke-linejoin:round;stroke-miterlimit:10;" d="M580.372,304.145
				c0,0-20.675,2.235-31.85,11.734"/>
			<path style="fill:#89929c;stroke:#000;stroke-linecap:round;stroke-linejoin:round;stroke-miterlimit:10;" d="M639.87,170.825
				c0,0,3.346,7.807,10.037,6.134c6.691-1.673,8.364-11.71,18.959-8.922c10.595,2.788,19.516,15.055,19.516,9.479
				c0-5.576-13.383-20.074-28.438-20.074C644.889,157.442,640.428,163.576,639.87,170.825z"/>
			<path style="fill:none;stroke:#000;stroke-linecap:round;stroke-linejoin:round;stroke-miterlimit:10;" d="M584.109,304.653
				c0,0,24.011-4.609,34.009,22.054c0.981,2.616,1.81,5.352,2.506,8.16"/>
			<path style="fill:#89929c;stroke:#000;stroke-linecap:round;stroke-linejoin:round;stroke-miterlimit:10;" d="
				M684.315,278.823c0,0,5.019-11.152,24.536-3.903c19.517,7.249,27.323,18.402,15.055,22.305
				C711.639,301.128,684.315,278.823,684.315,278.823z"/>
			<path style="fill:none;stroke:#000;stroke-linecap:round;stroke-linejoin:round;stroke-miterlimit:10;" d="M688.775,279.559
				c0,0,20.116-1.118,29.615,10.617"/>
			<path style="fill:none;stroke:#000;stroke-linecap:round;stroke-linejoin:round;stroke-miterlimit:10;" d="M684.315,278.823
				c0,0-7.959-1.528-16.621,2.264"/>
			<path style="fill:none;stroke:#000;stroke-linecap:round;stroke-linejoin:round;stroke-miterlimit:10;" d="M596.908,258.819
				c-11.769-12.017-23.394-13.832-23.394-13.832s-17.17-4.544-23.875,1.603"/>
			<g>
				
					<line style="fill:none;stroke:#000;stroke-linecap:round;stroke-linejoin:round;stroke-miterlimit:10;" x1="599.297" y1="197.049" x2="598.253" y2="192.389"/>
				<path style="fill:none;stroke:#000;stroke-linecap:round;stroke-linejoin:round;stroke-miterlimit:10;" d="M626.45,443.566
					c0,0,2.5-96.029,0-125.192c-2.5-29.163-14.165-63.325-14.165-63.325l-11.883-53.063"/>
				
					<line style="fill:none;stroke:#000;stroke-linecap:round;stroke-linejoin:round;stroke-miterlimit:10;" x1="676.01" y1="217.667" x2="678.158" y2="213.063"/>
				<path style="fill:none;stroke:#000;stroke-linecap:round;stroke-linejoin:round;stroke-miterlimit:10;" d="M632.282,443.46
					c0,0,0.833-87.591,4.166-112.587c3.333-24.997,16.664-64.158,16.664-64.158l20.459-43.827"/>
				<path style="fill:none;stroke:#000;stroke-linecap:round;stroke-linejoin:round;stroke-miterlimit:10;" d="M646.447,336.706
					c0,0-5.833,50.217-9.165,106.876"/>
				<path style="fill:none;stroke:#000;stroke-linecap:round;stroke-linejoin:round;stroke-miterlimit:10;" d="M618.118,443.46
					c0,0,1.667-80.092-1.666-90.923c-3.333-10.832-8.923-6.062-8.923-6.062s-15.422,1.814-21.01,10.755"/>
				<path style="fill:none;stroke:#000;stroke-linecap:round;stroke-linejoin:round;stroke-miterlimit:10;" d="M621.946,341.106
					c4.359,24.426,0.338,102.438,0.338,102.438"/>
				<path style="fill:none;stroke:#000;stroke-linecap:round;stroke-linejoin:round;stroke-miterlimit:10;" d="M662.971,283.707
					c-4.826,3.303-9.463,8.634-12.665,17.17c-9.998,26.663-8.858,142.704-8.858,142.704"/>
				<path style="fill:none;stroke:#000;stroke-linecap:round;stroke-linejoin:round;stroke-miterlimit:10;" d="M599.81,261.998
					c5.209,6.116,10.259,14.386,14.142,25.547c13.331,38.328,18.331,137.584,15.831,155.915"/>
				<path style="fill:none;stroke:#000;stroke-linecap:round;stroke-linejoin:round;stroke-miterlimit:10;" d="M633.668,297.868
					c-0.811,48.373-1.386,145.593-1.386,145.593"/>
			</g>
			<path style="fill:none;stroke:#000;stroke-linecap:round;stroke-linejoin:round;stroke-miterlimit:10;" d="M633.771,291.849
				c0.55-31.986,1.197-63.29,1.845-80.126c1.666-43.327,4.255-40.898,4.255-40.898s3.085-9.728,20.407-8.61"/>
			<g>
				<path style="fill:#89929c;stroke:#000;stroke-linecap:round;stroke-linejoin:round;stroke-miterlimit:10;" d="
					M612.432,328.376c0,0-13.941-12.431-8.364-18.545c5.576-6.114,40.149-10.597,50.186-2.649
					c10.037,7.948-12.268,19.157-20.632,21.602C625.258,331.23,615.221,330.414,612.432,328.376z"/>
				<path style="fill:none;stroke:#000;stroke-linecap:round;stroke-linejoin:round;stroke-miterlimit:10;" d="M625.306,318.197
					c-0.195,1.259-0.31,2.51-0.31,3.712"/>
				<path style="fill:none;stroke:#000;stroke-linecap:round;stroke-linejoin:round;stroke-miterlimit:10;" d="M630.1,303.685
					c0,0-2.074,4.149-3.578,9.234"/>
			</g>
			<g>
				<path style="fill:#89929c;stroke:#000;stroke-linecap:round;stroke-linejoin:round;stroke-miterlimit:10;" d="
					M612.432,409.657c0,0-13.941-12.432-8.364-18.545c5.576-6.114,40.149-10.597,50.186-2.649
					c10.037,7.948-12.268,19.157-20.632,21.602C625.258,412.511,615.221,411.695,612.432,409.657z"/>
				<path style="fill:none;stroke:#000;stroke-linecap:round;stroke-linejoin:round;stroke-miterlimit:10;" d="M630.1,384.966
					c0,0-5.103,10.206-5.103,18.224"/>
			</g>
			<g>
				<path style="fill:#89929c;stroke:#000;stroke-linecap:round;stroke-linejoin:round;stroke-miterlimit:10;" d="
					M622.81,375.282c0,0-9.465-8.44-5.679-12.591c3.786-4.151,27.259-7.195,34.074-1.799c6.815,5.396-8.329,13.007-14.008,14.667
					S624.703,376.665,622.81,375.282z"/>
				<path style="fill:none;stroke:#000;stroke-linecap:round;stroke-linejoin:round;stroke-miterlimit:10;" d="M634.806,358.517
					c0,0-3.465,6.929-3.465,12.374"/>
			</g>
		</g>
		<g>
			<g>
				<path style="fill:#FFFFFF;stroke:#000;stroke-linecap:round;stroke-linejoin:round;stroke-miterlimit:10;" d="
					M228.689,374.69c0,0-11.661,18.243-11.264,19.036c0.397,0.793,7.932,9.716,8.526,10.113c0.595,0.397,4.164,0.198,4.164,0.198
					l5.949-4.957c0,0,0-1.19-0.595-2.181c-0.595-0.992-2.379-1.19-2.379-1.19s3.173-7.733,2.974-9.716
					c-0.198-1.983-0.575-7.95-0.575-7.95L228.689,374.69z"/>
				
					<line style="fill:none;stroke:#000;stroke-linecap:round;stroke-linejoin:round;stroke-miterlimit:10;" x1="233.09" y1="395.709" x2="229.124" y2="399.873"/>
			</g>
			<g>
				<path style="fill:#FFFFFF;stroke:#000;stroke-linecap:round;stroke-linejoin:round;stroke-miterlimit:10;" d="
					M230.828,270.511c0,0,38.376,65.76,38.376,66.655c0,0.895-33.716,40.876-33.716,40.876l-6.8-3.353l14.856-40.209l-19.394-13.427
					L230.828,270.511z"/>
				<polygon style="fill:#000;stroke:#000;stroke-linecap:round;stroke-linejoin:round;stroke-miterlimit:10;" points="
					229.1,301.751 238.057,330.582 227.421,323.584 				"/>
				<polyline style="fill:none;stroke:#000;stroke-linecap:round;stroke-linejoin:round;stroke-miterlimit:10;" points="
					260.16,331.312 243.544,334.481 252.505,328.547 				"/>
				
					<line style="fill:none;stroke:#000;stroke-linecap:round;stroke-linejoin:round;stroke-miterlimit:10;" x1="230.39" y1="370.012" x2="239.321" y2="373.202"/>
			</g>
			<path style="fill:#FFFFFF;stroke:#000;stroke-linecap:round;stroke-linejoin:round;stroke-miterlimit:10;" d="
				M229.889,295.159l-4.695,42.722l0.939,51.173h-81.142l-1.408-23.474c0,0-26.291-80.984-26.056-83.801
				c0.235-2.817,43.819-24.178,43.819-24.178l36.854-1.174l32.629,14.084l0.235,11.502"/>
			<polygon style="fill:#000;stroke:#000;stroke-linecap:round;stroke-linejoin:round;stroke-miterlimit:10;" points="
				180.232,270.822 187.811,279.995 182.625,380.509 192.198,391.677 204.164,379.313 192.597,280.394 195.389,266.833 
				191.001,255.665 171.457,257.26 			"/>
			<polygon style="fill:#FFFFFF;stroke:#000;stroke-linecap:round;stroke-linejoin:round;stroke-miterlimit:10;" points="
				159.468,223.798 164.397,247.977 183.176,263.939 195.617,253.61 195.148,241.404 189.749,241.404 166.275,229.667 			"/>
			<polygon style="fill:#FFFFFF;stroke:#000;stroke-linecap:round;stroke-linejoin:round;stroke-miterlimit:10;" points="
				187.402,259.948 191.392,277.788 202.425,260.183 195.383,248.681 195.617,253.61 			"/>
			<polygon style="fill:#FFFFFF;stroke:#000;stroke-linecap:round;stroke-linejoin:round;stroke-miterlimit:10;" points="
				164.397,247.977 158.294,258.774 181.768,278.962 183.88,261.826 			"/>
			<g>
				<path style="fill:#FFFFFF;stroke:#000;stroke-linecap:round;stroke-linejoin:round;stroke-miterlimit:10;" d="
					M157.027,217.089c0,0-2.532-5.648-5.063-2.921c-2.532,2.727,0.389,10.127,3.7,12.074s5.453,0.974,5.453,0.974
					s5.648,9.348,6.816,10.127c1.168,0.779,18.696,8.764,21.033,9.543c2.337,0.779,10.127-1.947,11.685-4.09
					c1.558-2.142,0.389-23.37,0-29.602c-0.389-6.232-4.674-30.77-5.453-32.133c-0.779-1.363,0.779-15.775-2.921-15.775
					c-3.7,0-7.206,1.947-7.206,1.947s2.337-4.284-0.39-2.921c-2.727,1.363-7.011,4.479-22.591,10.322
					c-15.58,5.842-10.516,15.385-10.127,16.359C152.353,191.967,157.027,217.089,157.027,217.089z"/>
				<g>
					<path style="fill:none;stroke:#000;stroke-linecap:round;stroke-linejoin:round;stroke-miterlimit:10;" d="M157.027,217.089
						c0,0-0.139-0.305-0.376-0.732L157.027,217.089z"/>
					<path style="fill:#000;stroke:#000;stroke-linecap:round;stroke-linejoin:round;stroke-miterlimit:10;" d="
						M195.07,180.607c-0.463-2.804,0.656-15.321-2.793-15.321c-3.7,0-7.206,1.947-7.206,1.947s2.337-4.284-0.39-2.921
						c-2.727,1.363-7.011,4.479-22.591,10.322c-15.58,5.842-10.516,15.385-10.127,16.359c0.389,0.974,5.064,26.096,5.064,26.096
						l3.505-1.169c0,0-2.726-8.179-1.363-9.543c1.363-1.363,3.895-2.921,3.895-3.7c0-0.779-3.311-8.179-1.363-10.322
						C163.384,190.505,188.324,182.695,195.07,180.607z"/>
				</g>
				<polyline style="fill:none;stroke:#000;stroke-linecap:round;stroke-linejoin:round;stroke-miterlimit:10;" points="
					190.134,202.094 193.445,224.295 188.187,222.932 				"/>
				<path style="fill:none;stroke:#000;stroke-width:2;stroke-linecap:round;stroke-linejoin:round;stroke-miterlimit:10;" d="
					M182.734,203.652c0,0-7.011-0.974-10.906,1.363"/>
				<path style="fill:none;stroke:#000;stroke-width:2;stroke-linecap:round;stroke-linejoin:round;stroke-miterlimit:10;" d="
					M191.498,197.225c0,0,0.779-6.427,5.648-4.285"/>
				<path style="fill:none;stroke:#000;stroke-linecap:round;stroke-linejoin:round;stroke-miterlimit:10;" d="M177.671,227.801
					c0,0,5.258,2.142,9.153,2.337"/>
				<path style="fill:#000;stroke:#000;stroke-linecap:round;stroke-linejoin:round;stroke-miterlimit:10;" d="
					M181.176,209.884c0,1.291-0.61,2.337-1.363,2.337s-1.363-1.046-1.363-2.337c0-1.291,0.61-2.337,1.363-2.337
					S181.176,208.593,181.176,209.884z"/>
				<path style="fill:#000;stroke:#000;stroke-linecap:round;stroke-linejoin:round;stroke-miterlimit:10;" d="
					M197.924,205.015c0,1.291-0.61,2.337-1.363,2.337s-1.363-1.046-1.363-2.337c0-1.291,0.61-2.337,1.363-2.337
					S197.924,203.724,197.924,205.015z"/>
			</g>
			<g>
				<g>
					<path style="fill:#FFFFFF;stroke:#000;stroke-linecap:round;stroke-linejoin:round;stroke-miterlimit:10;" d="
						M182.404,249.223c0,0-2.727-4.674-1.947-4.869c0.779-0.195,10.516-3.116,10.322-4.674c-0.195-1.558-3.116-2.921-5.453-2.337
						c-2.337,0.584-14.217,2.921-13.827,4.674c0.39,1.753,4.09,12.269,5.453,14.801c1.363,2.532,2.921,23.954,2.921,23.954h9.932
						l0.389-6.232c0,0,5.064-0.974,5.648-2.337c0.584-1.363,0.195-5.453,0.195-5.453s4.479-0.779,4.479-1.753
						c0-0.974,1.363-9.737,0-10.906c-1.363-1.169-10.906-7.206-12.659-7.206C186.105,246.886,182.404,249.223,182.404,249.223z"/>
					<polyline style="fill:none;stroke:#000;stroke-linecap:round;stroke-linejoin:round;stroke-miterlimit:10;" points="
						196.037,266.75 196.232,262.855 197.984,261.882 					"/>
					
						<line style="fill:none;stroke:#000;stroke-linecap:round;stroke-linejoin:round;stroke-miterlimit:10;" x1="182.404" y1="249.223" x2="178.315" y2="251.949"/>
				</g>
				<g>
					<path style="fill:#FFFFFF;stroke:#000;stroke-linecap:round;stroke-linejoin:round;stroke-miterlimit:10;" d="
						M156.631,283.422l21.361,36.15l1.881-38.799h9.932c0,0,6.262,39.973,7.67,49.832c1.409,9.859,1.174,19.953-0.235,22.065
						c-1.408,2.113-7.667,9.102-10.014,9.102c-2.347,0-9.469-3.937-10.643-5.815c-0.602-0.964-15.227-9.05-27.695-21.951
						c-11.822-12.233-24.034-29.965-24.034-29.965"/>
					
						<line style="fill:none;stroke:#000;stroke-linecap:round;stroke-linejoin:round;stroke-miterlimit:10;" x1="177.992" y1="319.571" x2="175.41" y2="342.576"/>
					
						<line style="fill:none;stroke:#000;stroke-linecap:round;stroke-linejoin:round;stroke-miterlimit:10;" x1="179.401" y1="286.474" x2="189.964" y2="286.474"/>
				</g>
			</g>
			<polygon style="fill:#000;stroke:#000;stroke-linecap:round;stroke-linejoin:round;stroke-miterlimit:10;" points="
				144.991,389.054 144.991,443.566 227.604,443.566 226.133,389.054 			"/>
		</g>
		<g>
			<path style="fill:#000;stroke:#000;stroke-linecap:round;stroke-linejoin:round;stroke-miterlimit:10;" d="M387.49,184.761
				c0,0-12.212,3.288-15.5,11.273c-3.288,7.985-0.939,9.629-0.235,9.394c0.704-0.235,2.349-3.288,2.349-3.288
				s-2.583,7.281,0.705,10.334c3.288,3.053,8.69,7.28,8.69,7.28s-0.705,9.394-3.523,15.266c-2.818,5.871-6.811,12.447-4.697,15.031
				c2.114,2.583,4.697-1.174,4.697-1.174s2.349,5.871,10.568,7.985c8.22,2.114,25.35,5.067,32.396,4.128
				c7.046-0.939,11.757-5.067,11.757-5.067s-2.114,3.993,1.644,1.644c3.758-2.349,6.106-5.402,9.864-13.856
				c3.758-8.455,6.106-21.841,4.227-32.175c-1.879-10.334-11.038-19.023-17.144-23.955c-6.106-4.932-18.553-9.629-29.827-8.455
				C392.187,180.299,387.49,184.761,387.49,184.761z"/>
			<polygon style="fill:#000;stroke:#000;stroke-linecap:round;stroke-linejoin:round;stroke-miterlimit:10;" points="
				446.547,277.424 449.63,316.163 433.342,346.304 426.538,332.449 			"/>
			<polygon style="fill:#000;stroke:#000;stroke-linecap:round;stroke-linejoin:round;stroke-miterlimit:10;" points="
				435.171,309.909 430.454,340.162 426.388,333.493 			"/>
			<polygon style="fill:#000;stroke:#000;stroke-linecap:round;stroke-linejoin:round;stroke-miterlimit:10;" points="
				341.476,443.566 344.812,406.203 442.891,410.206 444.559,442.899 			"/>
			<path style="fill:#000;stroke:#000;stroke-linecap:round;stroke-linejoin:round;stroke-miterlimit:10;" d="M393.09,198.108
				c0,0-1.521,9.996,0.217,11.734c1.738,1.738,10.431,5.867,10.431,5.867s-1.086-11.083-1.086-11.735
				c0-0.652,6.085,14.994,9.127,16.95c3.042,1.956,8.692,6.737,8.692,6.737s0.869,2.608,1.738,2.39s2.825-2.173,2.825-2.173
				s6.302-1.738,5.65,3.26c-0.652,4.998-4.998,11.734-7.606,12.169s-4.563,0.217-4.563,0.217s-3.477,10.431-3.912,13.907
				c-0.435,3.477-0.652,4.129-0.217,5.433s10.431,6.085,12.604,6.737c2.173,0.652,19.557,7.823,19.557,7.823l-20.644,57.803
				l21.296,76.274c0,0-31.944,7.388-62.367,4.563c-30.423-2.825-43.026-9.344-43.026-9.344l25.859-73.232l-9.344-62.801
				l34.334-6.302l0.652-7.823c0,0-8.475-2.39-11.3-8.475c-2.93-6.31-0.217-17.385,0-20.644c0.217-3.26,0.435-7.823,0-11.517
				S383.311,200.715,393.09,198.108z"/>
			<g>
				<path style="fill:none;stroke:#000;stroke-linecap:round;stroke-linejoin:round;stroke-miterlimit:10;" d="M377.768,325.108
					c0,0,23.557,14.134,24.499,14.448"/>
				
					<line style="fill:none;stroke:#000;stroke-linecap:round;stroke-linejoin:round;stroke-miterlimit:10;" x1="387.191" y1="334.217" x2="403.837" y2="345.524"/>
			</g>
			<g>
				<path style="fill:#FFFFFF;stroke:#000;stroke-linecap:round;stroke-linejoin:round;stroke-miterlimit:10;" d="
					M423.082,267.961c-3.674-1.711-8.4-4.209-8.696-5.096c-0.434-1.304-0.217-1.956,0.217-5.433
					c0.435-3.477,3.912-13.907,3.912-13.907s1.956,0.217,4.563-0.217c2.608-0.435,6.954-7.171,7.606-12.169
					c0.652-4.998-5.65-3.26-5.65-3.26s-1.956,1.956-2.825,2.173s-1.738-2.39-1.738-2.39s-5.65-4.781-8.692-6.737
					c-3.042-1.956-9.127-17.602-9.127-16.95s1.086,11.734,1.086,11.734s-8.692-4.129-10.431-5.867
					c-1.738-1.738-0.217-11.734-0.217-11.734c-9.779,2.608-11.517,14.125-11.083,17.819s0.217,8.258,0,11.517
					c-0.217,3.259-2.93,14.334,0,20.644c2.825,6.085,11.3,8.475,11.3,8.475l-0.652,7.823l-9.6,1.762l-4.472,25.653l35.483,2.515
					L423.082,267.961z"/>
				
					<line style="fill:none;stroke:#000;stroke-linecap:round;stroke-linejoin:round;stroke-miterlimit:10;" x1="392.656" y1="264.386" x2="392.363" y2="271.13"/>
				<path style="fill:none;stroke:#000;stroke-linecap:round;stroke-linejoin:round;stroke-miterlimit:10;" d="M414.545,249.718
					c0,0-4.796,4.556-12.47,5.276"/>
				<path style="fill:none;stroke:#000;stroke-linecap:round;stroke-linejoin:round;stroke-miterlimit:10;" d="M391.134,240.265
					c0,0,6.736,2.608,12.169-3.042"/>
				<path style="fill:none;stroke:#000;stroke-linecap:round;stroke-linejoin:round;stroke-miterlimit:10;" d="M393.745,217.249
					c0,0,0.264,0.791,0,3.69c-0.264,2.9-5.481,10.564-3.9,11.355c1.582,0.791,2.95,0.456,6.113,0.719"/>
				<path style="fill:#000;" d="M390.073,221.516c0,1.362-0.683,2.466-1.527,2.466s-1.527-1.104-1.527-2.466
					c0-1.362,0.683-2.466,1.527-2.466S390.073,220.154,390.073,221.516z"/>
				<path style="fill:#000;" d="M404.634,223.042c0,1.362-0.684,2.466-1.527,2.466c-0.843,0-1.527-1.104-1.527-2.466
					c0-1.362,0.684-2.466,1.527-2.466C403.951,220.576,404.634,221.68,404.634,223.042z"/>
				<path style="fill:none;stroke:#000;stroke-linecap:round;stroke-linejoin:round;stroke-miterlimit:10;" d="M385.846,215.997
					c0,0,3.523-2.583,6.341-1.174"/>
				<path style="fill:none;stroke:#000;stroke-linecap:round;stroke-linejoin:round;stroke-miterlimit:10;" d="M401.346,215.527
					c0,0,5.167-0.705,7.046,3.523"/>
			</g>
			<g>
				<path style="fill:#FFFFFF;stroke:#000;stroke-linecap:round;stroke-linejoin:round;stroke-miterlimit:10;" d="
					M358.321,270.688l-4.045,28.098l-12.33,25.641l-24.549-36.817c0,0-0.838-5.867-2.235-8.102c-1.397-2.235-6.147-3.353-8.94-5.308
					c-2.794-1.956-4.75-8.102-6.985-5.867c-2.235,2.235-0.838,6.147,0,7.264c0.838,1.118,7.264,6.426,7.264,6.426l-15.646,5.029
					c0,0-12.293-5.867-13.411-3.632c-1.117,2.235,8.941,12.852,12.852,13.97c3.911,1.117,19.557-1.397,19.557-1.397
					s17.602,43.026,21.513,47.776c3.911,4.75,8.94,10.617,10.058,10.337c1.118-0.279,25.306-25.76,25.306-25.76L358.321,270.688z"/>
				<path style="fill:none;stroke:#000;stroke-linecap:round;stroke-linejoin:round;stroke-miterlimit:10;" d="M311.804,291.368
					c0,0-4.132-2.917-5.591-2.917c-1.458,0-16.043,2.431-16.043,2.431s-7.535-4.132-8.994-3.403"/>
			</g>
			<path style="fill:#000;stroke:#000;stroke-linecap:round;stroke-linejoin:round;stroke-miterlimit:10;" d="
				M353.355,342.509c6.722-6.817,13.375-14.165,13.375-14.165l-8.409-57.657l-4.045,28.098l-12.33,25.641L353.355,342.509z"/>
			<g>
				<path style="fill:#FFFFFF;stroke:#000;stroke-linecap:round;stroke-linejoin:round;stroke-miterlimit:10;" d="
					M451.573,305.467c0,0,0.729-12.397,3.403-14.342c2.674-1.945,11.425-4.618,12.397-6.32c0.972-1.701,2.431-0.972,2.188,1.215
					c-0.243,2.188-2.917,5.348-3.646,5.591c-0.729,0.243-4.376,2.431-4.376,2.431s2.917,2.431,3.646,2.674
					c0.729,0.243,10.209,2.188,10.209,2.188s9.48-7.779,9.48-5.834s-6.32,13.855-7.049,15.314c-0.729,1.458-6.077,1.945-8.265,2.188
					c-2.188,0.243-12.64,1.215-12.64,1.215s-2.674,27.468-2.917,33.788c-0.243,6.32-4.375,12.154-6.563,13.612
					c-2.188,1.458-14.342-8.994-14.099-12.883c0.243-3.889,15.314-34.76,15.314-34.76L451.573,305.467z"/>
				<path style="fill:none;stroke:#000;stroke-linecap:round;stroke-linejoin:round;stroke-miterlimit:10;" d="M454.627,307.554
					c0,0,2.293-4.761,5.696-4.031c3.403,0.729,13.613,1.945,13.613,1.945s4.618-6.077,6.563-6.32"/>
			</g>
		</g>
		<path style="fill:#000;stroke:#000;stroke-linecap:round;stroke-linejoin:round;stroke-miterlimit:10;" d="M599.366,340.04
			h-69.278c-6.523,0-12.153,4.573-13.49,10.957l-19.389,92.569h97.442l18.206-86.918C614.65,348.085,608.115,340.04,599.366,340.04z
			"/>
		<g>
			<path style="fill:#FFFFFF;stroke:#000;stroke-linecap:round;stroke-linejoin:round;stroke-miterlimit:10;" d="
				M516.666,336.521l-44.351,21.008L459.583,414.4c0,0-5.517,0.212-5.73,1.698c-0.212,1.486,0.212,4.456,0.212,4.456
				s-3.82,0.212-4.244,3.607c-0.424,3.395,0,7.003,0.637,8.7c0.637,1.698,7.003,9.549,8.913,9.761
				c1.91,0.212,4.244,0.637,4.881,0.849c0.637,0.212,108.861,0,108.861,0s4.244-0.424,5.305-1.273
				c1.061-0.849,1.273-2.759,1.273-2.759s2.971-2.334,3.183-3.82c0.212-1.485-1.061-10.61-1.061-12.52
				c0-1.91,7.639-57.295,8.064-61.115s-0.849-5.305-1.91-6.366c-1.061-1.061-12.732-7.852-17.825-9.974
				c-5.093-2.122-22.575-9.868-22.575-9.868L516.666,336.521z"/>
			<g>
				<path style="fill:#000;stroke:#000;stroke-linecap:round;stroke-linejoin:round;stroke-miterlimit:10;" d="
					M521.335,374.388c1.092-0.546,24.955-28.543,31.732-36.509c-3.186-1.405-6.488-2.333-6.488-2.333l-29.913,0.645l-8.769,4.515
					c2.279,7.235,9.093,25.792,10.467,29.225C520.062,374.175,520.062,375.024,521.335,374.388z"/>
				<g>
					<path style="fill:#FFFFFF;stroke:#000;stroke-linecap:round;stroke-linejoin:round;stroke-miterlimit:10;" d="
						M511.978,273.373c0,0-8.165,9.729-8.165,13.377c0,3.648,1.563,7.644-0.174,9.729c-1.737,2.085-11.466,6.602-9.555,9.034
						c1.911,2.432,4.865,4.343,4.865,4.343l-0.348,5.559c0,0,3.475,13.551,5.386,14.246c1.911,0.695,7.992,0.521,7.992,0.521
						s7.644,30.403,9.555,30.75c1.911,0.348,25.046-25.387,25.046-25.387l-0.897-10.228c0,0,9.034-14.767,11.466-21.543
						c2.432-6.775-2.432-20.848-9.381-27.276c-6.949-6.428-21.021-7.47-26.233-6.949
						C516.322,270.072,511.978,273.373,511.978,273.373z"/>
					<path style="fill:none;stroke:#000;stroke-width:2;stroke-linecap:round;stroke-linejoin:round;stroke-miterlimit:10;" d="
						M506.977,288.165c0,0,4.48-1.415,7.607,1.365"/>
					<path style="fill:#000;stroke:#000;stroke-linecap:round;stroke-linejoin:round;stroke-miterlimit:10;" d="
						M511.918,296.51c-0.419,1.276-1.275,2.142-1.914,1.932c-0.638-0.209-0.816-1.414-0.398-2.69
						c0.419-1.276,1.275-2.141,1.914-1.932S512.336,295.234,511.918,296.51z"/>
					<path style="fill:#000;stroke:#000;stroke-linecap:round;stroke-linejoin:round;stroke-miterlimit:10;" d="
						M513.195,265.207c0,0-15.983,2.78-12.161,5.907c3.822,3.127,24.844,8.687,29.361,10.25c4.517,1.564-7.644,4.343-5.907,5.733
						c1.737,1.39,5.212,7.992,5.212,7.992s-0.695,8.686-2.953,13.377c-2.259,4.691-12.856,10.945-12.856,10.945
						s-5.559-7.47-8.513-7.47c-2.953,0-7.123,0.695-6.775,3.475c0.348,2.78,1.564,10.25,1.737,10.945
						c0.174,0.695-2.085,7.644,0.348,9.208c2.432,1.564,14.941-3.475,20.5-5.907c5.559-2.432,8.165-3.648,8.513-7.123
						c0.348-3.475,5.733-19.11,5.733-19.11s3.648-2.432,6.949-1.911c3.301,0.521,3.301,7.818,0.347,10.424
						c-2.953,2.606-6.775,5.212-6.775,5.212l9.729,8.165c0,0,21.369-21.543,21.716-29.882c0.348-8.339-10.25-23.106-14.767-27.797
						C548.115,262.949,522.055,261.733,513.195,265.207z"/>
					<g>
						<path style="fill:#FFFFFF;stroke:#000;stroke-linecap:round;stroke-linejoin:round;stroke-miterlimit:10;" d="
							M498.787,317.613c0,0,5.531-2.102,7.105-1.808c2.918,0.546,5.759,3.648,4.738,6.031c-0.905,2.113-2.417,4.228-4.367,5.203
							c-1.95,0.975-2.763,1.463-3.088,0.488c-0.325-0.975-1.19-1.939-2.166-2.101c-0.975-0.163-0.671,0.935-0.671,0.935
							S499.437,318.913,498.787,317.613z"/>
						<path style="fill:none;stroke:#000;stroke-linecap:round;stroke-linejoin:round;stroke-miterlimit:10;" d="
							M500.723,319.969c0,0,3.015,0.144,6.605-1.867"/>
					</g>
				</g>
			</g>
			<g>
				<path style="fill:none;stroke:#000;stroke-linecap:round;stroke-linejoin:round;stroke-miterlimit:10;" d="M457.037,420.86
					c0,0,8.7,1.273,12.308,9.337"/>
				<path style="fill:none;stroke:#000;stroke-linecap:round;stroke-linejoin:round;stroke-miterlimit:10;" d="M462.554,416.616
					c0,0,7.215,1.91,9.549,4.881"/>
			</g>
			<g>
				<path style="fill:none;stroke:#000;stroke-linecap:round;stroke-linejoin:round;stroke-miterlimit:10;" d="M558.092,381.217
					l-6.2,36.672c0,0-9.761,1.698-9.761,4.669c0,2.971,5.305,10.61,5.305,10.61"/>
				
					<line style="fill:none;stroke:#000;stroke-linecap:round;stroke-linejoin:round;stroke-miterlimit:10;" x1="559.107" y1="374.6" x2="558.719" y2="376.927"/>
				<path style="fill:none;stroke:#000;stroke-linecap:round;stroke-linejoin:round;stroke-miterlimit:10;" d="M569.995,413.54
					c1.062,0.032,2.11,0.131,3.118,0.317"/>
				<path style="fill:none;stroke:#000;stroke-linecap:round;stroke-linejoin:round;stroke-miterlimit:10;" d="M554.439,416.404
					c0,0,6.056-2.301,12.494-2.786"/>
				<path style="fill:none;stroke:#000;stroke-linecap:round;stroke-linejoin:round;stroke-miterlimit:10;" d="M570.566,419.163
					c0,0,7.003,2.971,9.761,12.52"/>
			</g>
			<g>
				<path style="fill:#FFFFFF;stroke:#000;stroke-linecap:round;stroke-linejoin:round;stroke-miterlimit:10;" d="
					M573.113,443.142c0,0,0.637-4.669-5.093-12.096c-5.729-7.427-11.247-8.064-12.732-7.427
					c-1.486,0.637-41.804,15.279-41.804,15.279s-24.828-14.218-26.95-13.157c-2.122,1.061-15.491,17.613-15.491,17.613
					L573.113,443.142z"/>
				
					<line style="fill:none;stroke:#000;stroke-linecap:round;stroke-linejoin:round;stroke-miterlimit:10;" x1="476.772" y1="443.354" x2="490.141" y2="429.349"/>
				
					<line style="fill:none;stroke:#000;stroke-linecap:round;stroke-linejoin:round;stroke-miterlimit:10;" x1="483.987" y1="442.717" x2="496.082" y2="431.895"/>
				
					<line style="fill:none;stroke:#000;stroke-linecap:round;stroke-linejoin:round;stroke-miterlimit:10;" x1="493.324" y1="443.566" x2="501.6" y2="435.502"/>
				
					<line style="fill:none;stroke:#000;stroke-linecap:round;stroke-linejoin:round;stroke-miterlimit:10;" x1="502.661" y1="442.93" x2="506.056" y2="440.171"/>
			</g>
			
				<line style="fill:none;stroke:#000;stroke-linecap:round;stroke-linejoin:round;stroke-miterlimit:10;" x1="481.167" y1="373.67" x2="481.865" y2="368.87"/>
			
				<line style="fill:none;stroke:#000;stroke-linecap:round;stroke-linejoin:round;stroke-miterlimit:10;" x1="471.042" y1="443.354" x2="480.266" y2="379.875"/>
			<g>
				<path style="fill:#FFFFFF;stroke:#000;stroke-linecap:round;stroke-linejoin:round;stroke-miterlimit:10;" d="
					M466.586,443.354c0,0-1.273-12.52-7.215-15.279c-5.942-2.759-12.732,0.424-15.279,1.061c-2.547,0.637-25.465,14.43-25.465,14.43
					L466.586,443.354z"/>
				<g>
					<path style="fill:#FFFFFF;stroke:#000;stroke-linecap:round;stroke-linejoin:round;stroke-miterlimit:10;" d="
						M438.575,435.715c0,0-6.154-4.668-8.913-7.003c-2.759-2.334-4.456-2.546-9.974-1.91c-5.517,0.637-9.549,16.552-9.549,16.552
						h20.584L438.575,435.715z"/>
					<path style="fill:#FFFFFF;stroke:#000;stroke-linecap:round;stroke-linejoin:round;stroke-miterlimit:10;" d="
						M435.604,433.38c0,0-7.639,8.488-6.791,9.125c0.849,0.637,4.881,0.424,4.881,0.424s7.003-5.305,7.215-6.79
						C441.122,434.654,435.604,433.38,435.604,433.38z"/>
					<path style="fill:#FFFFFF;stroke:#000;stroke-linecap:round;stroke-linejoin:round;stroke-miterlimit:10;" d="
						M426.267,428.5l-7.639,15.066l-4.244-0.849c0,0,4.669-14.43,5.305-15.915c0.637-1.486,4.032-1.91,7.003,0"/>
					<path style="fill:#FFFFFF;stroke:#000;stroke-linecap:round;stroke-linejoin:round;stroke-miterlimit:10;" d="
						M419.689,426.802c0,0-6.299-0.706-7.242,0.761s-2.307,15.791-2.307,15.791l4.244-0.637L419.689,426.802z"/>
					<path style="fill:#FFFFFF;stroke:#000;stroke-linecap:round;stroke-linejoin:round;stroke-miterlimit:10;" d="
						M411.714,428.296c0,0-5.027,1.676-5.237,3.037c-0.21,1.362,0.105,11.73,0.105,11.73l3.558,0.29L411.714,428.296z"/>
					<path style="fill:#FFFFFF;stroke:#000;stroke-linecap:round;stroke-linejoin:round;stroke-miterlimit:10;" d="
						M406.372,432.799c0,0-4.923,3.666-5.237,4.504c-0.314,0.838-2.933,3.771-1.885,3.98c1.047,0.209,4.713-2.618,4.713-2.618
						l2.199-0.943L406.372,432.799z"/>
				</g>
			</g>
		</g>
		
			<line style="fill:none;stroke:#000;stroke-linecap:round;stroke-linejoin:round;stroke-miterlimit:10;" x1="689.756" y1="443.566" x2="33.563" y2="443.566"/>
		<g>
			
				<rect x="402.368" y="441.481" style="fill:#89929c;stroke:#000;stroke-linecap:round;stroke-linejoin:round;stroke-miterlimit:10;" width="71.59" height="2.085"/>
			<polygon style="fill:#89929c;stroke:#000;stroke-linecap:round;stroke-linejoin:round;stroke-miterlimit:10;" points="
				389.902,385.636 304.304,385.636 317.937,443.566 403.536,443.566 			"/>
			<path style="fill:#000;stroke:#000;stroke-linecap:round;stroke-linejoin:round;stroke-miterlimit:10;" d="
				M354.833,415.693c0,2.985-2.42,5.405-5.405,5.405s-5.405-2.42-5.405-5.405s2.42-5.405,5.405-5.405
				S354.833,412.708,354.833,415.693z"/>
		</g>
		<g>
			<path style="fill:#000;stroke:#000;stroke-linecap:round;stroke-linejoin:round;stroke-miterlimit:10;" d="
				M106.451,414.249c0,0-5.067-3.455-8.982-0.691c-3.916,2.764-4.376,16.583,0,21.42c2.515,2.78,9.213,0.461,9.213,0.461
				l0.461-6.679c0,0-4.221,4.226-6.449-0.23c-1.382-2.764-0.691-9.213,1.843-10.364c2.534-1.152,4.837,1.382,4.837,1.382
				L106.451,414.249z"/>
			<g>
				<path style="fill:none;stroke:#000;stroke-linecap:round;stroke-linejoin:round;stroke-miterlimit:10;" d="M109.263,401.806
					c0,0,8.385-3.547,8.385-10.319c0-6.772-4.192-6.772-4.837-11.609"/>
				<path style="fill:none;stroke:#000;stroke-linecap:round;stroke-linejoin:round;stroke-miterlimit:10;" d="M119.26,379.555
					c0,0-0.645,3.87,3.547,7.095c4.192,3.225,2.257,8.385,0.322,10.964"/>
				<path style="fill:none;stroke:#000;stroke-linecap:round;stroke-linejoin:round;stroke-miterlimit:10;" d="M120.55,376.008
					c0,0,0.967-2.257,3.225-3.225"/>
			</g>
			
				<rect x="105.171" y="404.815" style="fill:#000;stroke:#000;stroke-linecap:round;stroke-linejoin:round;stroke-miterlimit:10;" width="31.202" height="38.751"/>
		</g>
		<g>
			<path style="fill:#000;stroke:#000;stroke-linecap:round;stroke-linejoin:round;stroke-miterlimit:10;" d="
				M147.045,112.906h-1.466v-9.476H125.48v9.476h-1.466c-14.72,0-26.653,11.933-26.653,26.653v2.655h76.336v-2.655
				C173.698,124.839,161.765,112.906,147.045,112.906z"/>
			
				<line style="fill:none;stroke:#000;stroke-linecap:round;stroke-linejoin:round;stroke-miterlimit:10;" x1="135.53" y1="104.727" x2="135.53" y2="49.05"/>
		</g>
		<g>
			<path style="fill:#000;stroke:#000;stroke-linecap:round;stroke-linejoin:round;stroke-miterlimit:10;" d="M453.44,112.906
				h-1.466v-9.476h-20.099v9.476h-1.466c-14.72,0-26.653,11.933-26.653,26.653v2.655h76.336v-2.655
				C480.092,124.839,468.159,112.906,453.44,112.906z"/>
			
				<line style="fill:none;stroke:#000;stroke-linecap:round;stroke-linejoin:round;stroke-miterlimit:10;" x1="441.924" y1="104.727" x2="441.924" y2="49.05"/>
		</g>
		<g>
			<path style="fill:#FFFFFF;stroke:#000;stroke-linecap:round;stroke-linejoin:round;stroke-miterlimit:10;" d="
				M355.611,149.832h-48.823c-6.116,0-11.073,4.958-11.073,11.074v20.592c0,6.116,4.958,11.073,11.073,11.073h38.414l8.762,10.824
				v-10.824h1.648c6.116,0,11.073-4.958,11.073-11.073v-20.592C366.684,154.79,361.726,149.832,355.611,149.832z"/>
			<g>
				<path style="fill:#000;stroke:#000;stroke-linecap:round;stroke-linejoin:round;stroke-miterlimit:10;" d="
					M320.071,170.922c0,1.664-1.349,3.013-3.013,3.013c-1.664,0-3.013-1.349-3.013-3.013s1.349-3.013,3.013-3.013
					C318.722,167.909,320.071,169.258,320.071,170.922z"/>
				
					<circle style="fill:#000;stroke:#000;stroke-linecap:round;stroke-linejoin:round;stroke-miterlimit:10;" cx="331.199" cy="170.922" r="3.013"/>
				
					<circle style="fill:#000;stroke:#000;stroke-linecap:round;stroke-linejoin:round;stroke-miterlimit:10;" cx="345.34" cy="170.922" r="3.013"/>
			</g>
		</g>
	</g>
</g>
</svg>
